<?xml version="1.0" encoding="UTF-8" standalone="no"?>
<!-- Created with Inkscape (http://www.inkscape.org/) -->

<svg
   xmlns:dc="http://purl.org/dc/elements/1.1/"
   xmlns:cc="http://creativecommons.org/ns#"
   xmlns:rdf="http://www.w3.org/1999/02/22-rdf-syntax-ns#"
   xmlns:svg="http://www.w3.org/2000/svg"
   xmlns="http://www.w3.org/2000/svg"
   xmlns:sodipodi="http://sodipodi.sourceforge.net/DTD/sodipodi-0.dtd"
   xmlns:inkscape="http://www.inkscape.org/namespaces/inkscape"
   width="210mm"
   height="297mm"
   viewBox="0 0 210 297"
   version="1.1"
   id="svg8"
   inkscape:version="0.92.1 r"
   sodipodi:docname="defaultavatar.svg">
  <defs
     id="defs2">
    <clipPath
       clipPathUnits="userSpaceOnUse"
       id="clipPath7531">
      <g
         id="g7537">
        <circle
           r="59.467468"
           cy="94.029816"
           cx="290.94421"
           id="circle7533"
           style="fill:#f2f2f2;fill-opacity:1;stroke:none;stroke-width:0.07347675;stroke-linecap:square;stroke-linejoin:round;stroke-miterlimit:4;stroke-dasharray:none;stroke-opacity:1" />
        <path
           inkscape:connector-curvature="0"
           id="path7535"
           d="m 306.18257,36.460228 a 59.467469,59.467469 0 0 1 -15.24145,57.349473 59.467469,59.467469 0 0 0 -29.73203,-51.355523 59.467469,59.467469 0 0 0 -27.67273,36.175573 59.467469,59.467469 0 0 1 57.34895,15.24093 59.467469,59.467469 0 0 0 -51.355,29.732549 59.467469,59.467469 0 0 0 36.17609,27.67273 59.467469,59.467469 0 0 1 15.24092,-57.348959 59.467469,59.467469 0 0 0 29.73204,51.355519 59.467469,59.467469 0 0 0 27.67273,-36.17557 59.467469,59.467469 0 0 1 -57.34844,-15.241439 59.467469,59.467469 0 0 0 51.35501,-29.73204 59.467469,59.467469 0 0 0 -36.17609,-27.673243 z"
           style="fill:#1de9b6;fill-opacity:1;stroke:none;stroke-width:0.07347675;stroke-linecap:square;stroke-linejoin:round;stroke-miterlimit:4;stroke-dasharray:none;stroke-opacity:1" />
      </g>
    </clipPath>
    <clipPath
       clipPathUnits="userSpaceOnUse"
       id="clipPath4930">
      <g
         id="g4936"
         transform="translate(222.97274,89.347759)">
        <path
           style="fill:#808080;fill-opacity:1;stroke:none;stroke-width:0.20481025px;stroke-linecap:butt;stroke-linejoin:miter;stroke-opacity:1"
           d="m 80.497324,109.67042 c 0,0 -0.813607,11.08437 -5.341799,12.68777 -4.528199,1.6034 -26.40164,1.1153 -28.93436,9.62029 -2.532721,8.50498 -4.37476,38.96952 -4.37476,38.96952 l 46.817026,-0.84331 46.817029,0.84331 c 0,0 -1.84203,-30.46454 -4.37476,-38.96952 -2.53272,-8.50499 -24.40616,-8.01689 -28.93436,-9.62029 -4.528194,-1.6034 -5.341802,-12.68777 -5.341802,-12.68777 l -8.166107,0.0603 z"
           id="path4932"
           inkscape:connector-curvature="0"
           sodipodi:nodetypes="ccscccscccc" />
        <path
           style="fill:#d45500;fill-opacity:1;stroke:none;stroke-width:0.64000171;stroke-miterlimit:4;stroke-dasharray:none;stroke-dashoffset:0;stroke-opacity:1"
           d="m 99.24677,71.381119 c 6.03918,4.050584 8.9813,9.627582 8.27767,20.183927 -0.76841,11.528134 -7.30729,27.592264 -18.861004,27.592264 -11.553718,0 -18.092598,-16.06413 -18.861009,-27.592264 -0.703636,-10.556345 2.238491,-16.133343 8.277675,-20.183927 5.859601,-3.930134 15.307067,-3.930134 21.166668,0 z"
           id="path4934"
           inkscape:connector-curvature="0"
           sodipodi:nodetypes="ssssss" />
      </g>
    </clipPath>
    <clipPath
       clipPathUnits="userSpaceOnUse"
       id="clipPath4980">
      <circle
         style="fill:#c3f2ec;fill-opacity:1;stroke:none;stroke-width:0.73400003;stroke-miterlimit:4;stroke-dasharray:none;stroke-dashoffset:0;stroke-opacity:1"
         id="circle4982"
         cx="88.663582"
         cy="103.2445"
         r="50.45982" />
    </clipPath>
  </defs>
  <sodipodi:namedview
     id="base"
     pagecolor="#ffffff"
     bordercolor="#666666"
     borderopacity="1.0"
     inkscape:pageopacity="0.0"
     inkscape:pageshadow="2"
     inkscape:zoom="0.98994949"
     inkscape:cx="677.59413"
     inkscape:cy="705.18449"
     inkscape:document-units="mm"
     inkscape:current-layer="layer1"
     showgrid="false"
     inkscape:snap-bbox="true"
     inkscape:snap-bbox-midpoints="true"
     inkscape:snap-bbox-edge-midpoints="true"
     inkscape:window-width="3200"
     inkscape:window-height="1690"
     inkscape:window-x="0"
     inkscape:window-y="54"
     inkscape:window-maximized="1" />
  <metadata
     id="metadata5">
    <rdf:RDF>
      <cc:Work
         rdf:about="">
        <dc:format>image/svg+xml</dc:format>
        <dc:type
           rdf:resource="http://purl.org/dc/dcmitype/StillImage" />
        <dc:title></dc:title>
      </cc:Work>
    </rdf:RDF>
  </metadata>
  <g
     inkscape:label="Layer 1"
     inkscape:groupmode="layer"
     id="layer1">
    <g
       id="g4989"
       inkscape:export-xdpi="128.86293"
       inkscape:export-ydpi="128.86293">
      <circle
         style="fill:#c3f2ec;fill-opacity:1;stroke:none;stroke-width:0.73400003;stroke-miterlimit:4;stroke-dasharray:none;stroke-dashoffset:0;stroke-opacity:1"
         id="circle4966"
         cx="88.663582"
         cy="103.2445"
         r="50.45982" />
      <g
         clip-path="url(#clipPath4980)"
         id="g4964">
        <path
           inkscape:connector-curvature="0"
           style="fill:#36e4cc;fill-opacity:1;stroke:none;stroke-width:0.20481025px;stroke-linecap:butt;stroke-linejoin:miter;stroke-opacity:1"
           d="m 79.552767,115.29374 c -0.76437,3.00582 -2.102352,6.25211 -4.39715,7.06468 -4.528198,1.6034 -26.401947,1.1151 -28.934666,9.62009 -2.532721,8.50498 -4.374409,38.96971 -4.374409,38.96971 l 46.816779,-0.84336 46.817299,0.84336 c 0,0 -1.8422,-30.46473 -4.37493,-38.96971 -2.53272,-8.50499 -24.40595,-8.01669 -28.93415,-9.62009 -2.294802,-0.81257 -3.633297,-4.05886 -4.397665,-7.06468 -2.561257,2.38268 -5.604695,3.86333 -9.110554,3.86333 -3.505933,0 -6.549265,-1.48057 -9.110554,-3.86333 z"
           id="path4492" />
        <path
           style="fill:#36e4cc;fill-opacity:1;stroke:none;stroke-width:0.64000171;stroke-miterlimit:4;stroke-dasharray:none;stroke-dashoffset:0;stroke-opacity:1"
           d="m 99.24677,71.381119 c 6.03918,4.050584 8.9813,9.627582 8.27767,20.183927 -0.76841,11.528134 -7.30729,27.592264 -18.861004,27.592264 -11.553718,0 -18.092598,-16.06413 -18.861009,-27.592264 -0.703636,-10.556345 2.238491,-16.133343 8.277675,-20.183927 5.859601,-3.930134 15.307067,-3.930134 21.166668,0 z"
           id="path4485"
           inkscape:connector-curvature="0"
           sodipodi:nodetypes="ssssss" />
        <path
           style="fill:#1bcbb3;fill-opacity:1;stroke:none;stroke-width:2.41890407;stroke-miterlimit:4;stroke-dasharray:none;stroke-dashoffset:0;stroke-opacity:1"
           d="M 300.67188 435.75586 C 300.14503 437.82764 299.54312 439.92906 298.86328 442 C 308.90973 452.02525 321.01686 458.35742 335.10547 458.35742 C 349.19273 458.35742 361.30129 452.02541 371.34766 442.00195 C 370.66748 439.93045 370.06606 437.82823 369.53906 435.75586 C 359.85872 444.76126 348.35596 450.35742 335.10547 450.35742 C 321.8547 450.35742 310.35234 444.76157 300.67188 435.75586 z "
           transform="scale(0.26458333)"
           id="path4951" />
      </g>
    </g>
  </g>
</svg>
